<svg xmlns="http://www.w3.org/2000/svg" width="20" height="20" viewBox="0 0 20 20">
  <path fill="#4285F4" d="M18.8 10.208c0-.65-.058-1.275-.167-1.875H10v3.55h4.933c-.217 1.142-.867 2.108-1.842 2.758v2.308h2.975c1.733-1.6 2.734-3.95 2.734-6.741z"/>
  <path fill="#34A853" d="M10 19.167c2.475 0 4.55-.817 6.067-2.217l-2.975-2.308c-.817.55-1.858.883-3.092.883-2.383 0-4.408-1.608-5.133-3.775H1.817v2.383c1.508 3 4.6 5.034 8.183 5.034z"/>
  <path fill="#FBBC05" d="M4.867 11.75c-.183-.55-.292-1.133-.292-1.742s.109-1.192.292-1.742V5.892H1.817c-.625 1.233-1 2.625-1 4.116s.375 2.883.983 4.108l2.375-1.85.692-.516z"/>
  <path fill="#EA4335" d="M10 4.483c1.35 0 2.55.467 3.508 1.367l2.625-2.625C14.542 1.742 12.475.833 10 .833c-3.583 0-6.675 2.058-8.183 5.059l3.05 2.366c.725-2.166 2.75-3.775 5.133-3.775z"/>
</svg> 